/* XPM */
static char *result[] = {
/* columns rows colors chars-per-pixel */
"64 64 203 2 ",
"   c #0E0F24",
".  c #100F24",
"X  c #0F1024",
"o  c #101024",
"O  c #1B1626",
"+  c #1C1927",
"@  c #151629",
"#  c #161A2A",
"$  c #1B1C2A",
"%  c #241B27",
"&  c #291C27",
"*  c #241D29",
"=  c #2A1E29",
"-  c #1D2327",
";  c #1C222B",
":  c #192332",
">  c #1B2936",
",  c #1C2C38",
"<  c #212528",
"1  c #2D2029",
"2  c #32222A",
"3  c #3C282B",
"4  c #252432",
"5  c #232C32",
"6  c #2A2A36",
"7  c #2B3836",
"8  c #293738",
"9  c #353133",
"0  c #363639",
"q  c #313F39",
"w  c #472E2E",
"e  c #4E332F",
"r  c #4A3533",
"t  c #613D32",
"y  c #34453C",
"u  c #37493E",
"i  c #394D3F",
"p  c #424339",
"a  c #6E4839",
"s  c #774936",
"d  c #5E7E37",
"f  c #274449",
"g  c #3A4D44",
"h  c #3E5442",
"j  c #3F5846",
"k  c #2D5153",
"l  c #375B5A",
"z  c #35615F",
"x  c #366663",
"c  c #3F7871",
"v  c #454649",
"b  c #405744",
"n  c #425A45",
"m  c #4B5B45",
"M  c #565549",
"N  c #565554",
"B  c #585754",
"V  c #605F58",
"C  c #4B644B",
"Z  c #4C664D",
"A  c #516B4F",
"S  c #426958",
"D  c #526D50",
"F  c #567352",
"G  c #597654",
"H  c #5C7A56",
"J  c #64635C",
"K  c #736659",
"L  c #487566",
"P  c #427B72",
"I  c #6A6C62",
"U  c #7B796C",
"Y  c #8C553A",
"T  c #9F603E",
"R  c #A3613E",
"E  c #8D5F47",
"W  c #A66B45",
"Q  c #B56C41",
"!  c #B86D42",
"~  c #A4714E",
"^  c #BE7143",
"/  c #BA794C",
"(  c #A47351",
")  c #A97651",
"_  c #B27C54",
"`  c #C37444",
"'  c #C97847",
"]  c #CC7946",
"[  c #CC7C4A",
"{  c #D57D47",
"}  c #D47E48",
"|  c #708E3B",
" . c #769E3E",
".. c #78A13F",
"X. c #7EAB3F",
"o. c #7CA642",
"O. c #7EAC44",
"+. c #7BAC4B",
"@. c #77AE58",
"#. c #4D8A76",
"$. c #468679",
"%. c #70AB6D",
"&. c #65AA76",
"*. c #6AAF73",
"=. c #62AA7B",
"-. c #81AC3F",
";. c #B29152",
":. c #80AC40",
">. c #86B443",
",. c #88B744",
"<. c #89B845",
"1. c #84B54A",
"2. c #8CB34D",
"3. c #91B84C",
"4. c #96BC58",
"5. c #B2A24A",
"6. c #898774",
"7. c #929C73",
"8. c #BA8D63",
"9. c #AABC60",
"0. c #DA8149",
"q. c #DD8548",
"w. c #C6895B",
"e. c #D98A52",
"r. c #D99056",
"t. c #E38549",
"y. c #E68B4D",
"u. c #EA8A4C",
"i. c #F28D4C",
"p. c #F6904C",
"a. c #ED8F50",
"s. c #ED9759",
"d. c #F09659",
"f. c #ED9E61",
"g. c #D9AF7A",
"h. c #B9D279",
"j. c #498E80",
"k. c #4D9687",
"l. c #4F9B8A",
"z. c #539784",
"x. c #519D8A",
"c. c #5CA986",
"v. c #53A38E",
"b. c #5AA88B",
"n. c #54A693",
"m. c #55A894",
"M. c #5BAB95",
"N. c #5DAB96",
"B. c #60A980",
"V. c #61AE97",
"C. c #63AF98",
"Z. c #6FB392",
"A. c #65B099",
"S. c #6BB39A",
"D. c #7EBA93",
"F. c #72B69C",
"G. c #75B89D",
"H. c #79BA9E",
"J. c #7EBCA0",
"K. c #9A9881",
"L. c #A4A28A",
"P. c #A8A689",
"I. c #B0B294",
"U. c #B9B696",
"Y. c #81BEA0",
"T. c #C3BC98",
"R. c #BDCD8C",
"E. c #86C0A1",
"W. c #8BC2A3",
"Q. c #97C7A5",
"!. c #9BCAA7",
"~. c #B1CBA6",
"^. c #A7D0AB",
"/. c #ACD3AC",
"(. c #B2D5AD",
"). c #B7D9B0",
"_. c #BDDBB1",
"`. c #D9CB98",
"'. c #CAD395",
"]. c #F7CF96",
"[. c #CED0A7",
"{. c #DBD6A8",
"}. c #DBD6AB",
"|. c #C3DEB2",
" X c #E7DFAC",
".X c #E4DFB1",
"XX c #D7E5AB",
"oX c #CBE1B4",
"OX c #D3E5B6",
"+X c #DCE9B7",
"@X c #DEEAB9",
"#X c #E0E1AC",
"$X c #FBE3AA",
"%X c #EAE6B3",
"&X c #E4EDBA",
"*X c #E9EFBB",
"=X c #FAEAB3",
"-X c #F2EDBA",
";X c #EFF1BD",
":X c #F4F4BD",
">X c #FBF5BE",
",X c #FCF7C0",
"<X c #FFF8C0",
/* pixels */
"m.m.m.m.N.!.(.:X<X<X<X<X<X<X<X:X_.&X(.!.N.m.m.m.m.m.N./.:X<X<X,X<X:X^.N.m.m.m.m.m.m.m.m.m.m.m.M.^.:X<X<X<X<X<X;X(.!.V.m.m.m.m.m.",
"m.m.m.m.m.n.A.oX>X<X<X<X<X<X<X<X<X,XoXA.m.m.m.m.m.m.C.oX+X:X+X:X@X:XoXA.m.m.m.m.m.m.m.m.m.m.M.Y.oX:X+X:X@X,X<X<X<X;XE.m.m.m.m.m.",
"m.m.m.m.m.m.m.S.@X:X:X:X:X:X:X:X,X@XA.m.m.m.m.m.m.m.n.M.S.oXY.oXE.OXS.m.m.m.m.m.m.m.m.m.m.m.S.oXE.oXY.OXE.*X<X<X<X<X;XG.M.m.m.m.",
"m.m.m.m.m.m.m.m.F.G.G.G.G.G.G.G.G.S.M.m.m.m.m.m.m.m.m.n.M.J.|.W.|.H.M.m.m.m.m.m.m.m.m.m.m.C.).W.).E.oX:X@X,X<X<X>X<X>X@XoXA.m.m.",
"m.m.m.m.m.m.m.m.m.n.n.n.n.n.n.n.n.n.m.m.m.m.m.m.m.m.m.m.m.M.E.A.E.M.m.m.m.m.m.m.m.m.m.m.m.N.E.C.W./.^.@X(.&X(.&X^.@X/.&X^.^.A.m.",
"m.m.m.m.m.m.m.m.m.m.m.m.m.m.m.m.m.m.m.m.m.m.m.m.m.m.m.m.m.m.n.m.n.m.m.m.m.m.m.m.m.m.m.m.m.n.n.M.W.(.!./.!.(.!./.!./.^.@X/.+XS.m.",
"m.m.m.m.m.m.m.m.m.m.m.m.m.m.m.m.m.m.m.m.m.m.m.m.m.m.m.n.m.m.m.m.m.m.m.m.m.m.m.m.m.m.m.m.m.m.m.C.|.H.|.H._.G._.H.oXE.OX*X*XOXS.m.",
"m.m.m.m.m.m.m.m.m.m.m.m.m.m.m.m.m.m.m.m.m.m.m.m.m.m.n.M.m.m.m.m.m.m.m.m.m.m.m.m.m.m.m.m.m.m.m.m.V.M.V.M.V.m.V.m.S.|.G.A.A.V.m.m.",
"m.m.m.m.m.m.m.m.m.m.m.m.m.m.m.m.m.m.m.m.m.m.m.m.m.m.m.m.m.m.m.m.m.m.m.m.m.m.m.m.m.m.m.m.m.m.m.m.m.m.n.m.n.m.m.m.M.G.M.m.m.m.m.m.",
"m.m.m.m.m.m.m.m.m.m.m.m.m.m.m.m.m.m.m.m.m.m.m.n.m.m.m.m.m.m.m.m.m.m.m.m.m.m.m.m.m.m.m.m.m.m.m.m.m.m.m.m.m.m.m.m.m.m.m.m.m.m.m.m.",
"m.m.m.m.m.m.m.m.m.m.m.m.m.m.m.m.m.m.m.m.m.m.m.m.m.m.m.m.m.m.m.m.m.m.m.m.m.m.m.m.m.m.m.m.m.m.m.m.m.m.m.m.m.m.m.m.m.m.m.m.m.m.m.m.",
"m.n.m.m.m.m.m.m.m.m.m.m.m.m.m.m.m.m.m.m.m.m.m.m.m.m.m.m.m.m.m.m.m.m.m.m.m.m.m.m.m.m.m.m.m.m.m.m.m.m.m.m.m.m.m.m.m.m.m.m.m.m.m.m.",
"m.m.m.m.m.m.m.m.m.m.n.m.m.m.m.m.m.m.m.m.m.m.m.m.m.m.m.m.m.m.m.m.m.m.m.m.m.m.m.m.m.m.m.m.m.m.m.m.m.m.m.m.m.m.m.m.m.m.m.m.m.m.m.m.",
"m.m.m.m.m.m.m.m.m.m.m.m.m.m.m.m.m.m.m.m.m.m.m.m.m.m.m.m.m.m.m.m.m.m.m.m.m.m.m.m.m.m.m.m.m.m.m.m.m.m.m.m.m.m.m.m.m.m.m.m.m.m.m.m.",
"m.m.m.m.m.m.m.m.m.m.m.m.m.m.m.m.m.m.m.m.m.m.m.m.m.m.m.=.&.&.m.m.m.m.=.*.=.=.b.m.m.m.m.m.m.m.m.m.m.m.m.m.m.m.m.m.m.m.m.m.m.m.m.m.",
"m.m.m.m.m.m.m.m.m.m.m.m.m.m.m.m.m.m.m.m.m.m.m.c.c.c.=.O.-.+.B.M.m.=.+.X.X.+.c.b.m.m.m.m.m.m.m.m.m.m.m.m.m.m.m.m.m.m.m.m.m.m.m.m.",
"m.m.m.m.m.m.m.m.m.m.m.m.m.m.m.m.m.m.m.m.m.n.b.+.O.O.O.:.:.:.+.c.c.+.X.,.<.<.+.c.m.m.m.m.m.m.m.m.m.m.m.m.m.m.m.m.m.m.m.m.m.m.m.m.",
"m.m.m.m.m.m.m.m.m.m.m.m.m.m.m.m.m.m.m.m.m.b.@.O.:.-.:.:.>.>.1.+.+.O.O.<.<.<.+.b.m.m.m.m.m.m.m.m.m.m.m.m.m.m.m.m.m.m.m.m.m.m.m.m.",
"m.m.m.m.m.m.m.n.m.m.m.m.m.m.m.m.m.m.m.m.v.%.o.O.-.-.:.:.,.,.,.:.X.O.X.,.<.<.<.%.n.m.m.m.m.m.m.m.m.m.m.m.m.m.m.m.m.m.m.m.m.m.m.m.",
"m.m.m.m.m.m.m.m.m.m.m.m.m.m.m.m.m.m.m.m.c.O.X.-.O.:.:.-.>.,.,.:.-.-.X.O.<.<.<.+.D.M.m.m.m.m.m.m.m.m.m.m.m.m.m.m.m.m.m.m.m.m.m.m.",
"m.m.m.m.m.m.m.m.m.m.m.m.m.m.m.m.m.m.m.m.c.+.-.-.-.-.O.-.:.>.>.-.O.+.X.-.-.<.<.3.XXG.m.m.m.m.m.m.m.m.m.m.m.m.m.m.m.m.m.m.m.m.m.m.",
"m.m.m.m.m.m.m.m.m.m.m.m.m.m.m.m.m.m.m.m.v.+.-.-.-.O.-.-.:.:.:.O.+.=.+.-.-.-.X.3.%X@XS.m.m.m.m.m.m.m.m.m.m.m.m.m.m.m.m.m.m.m.m.m.",
"m.m.m.m.m.m.m.m.m.m.m.m.m.m.m.m.m.m.m.m.c.+.-.-.:.-.-.:.:.:.-.O.&.m.&.O.X.X.-.'.>X>X_.V.m.m.m.m.m.m.m.m.m.m.m.m.m.m.m.m.m.m.m.m.",
"m.m.m.m.m.m.m.m.m.m.m.m.m.m.m.m.m.m.n.n.b.+.>.>.:.:.:.:.:.-.-.+.c.m.7.5.5.h.h.;X<X<X;X^.M.m.m.m.m.m.m.m.m.m.n.m.m.m.n.m.m.m.m.m.",
"m.m.m.m.m.m.m.m.m.m.m.m.m.m.m.m.m.m.m.m.b.+.<.<.-.X.X.X.:.-.-.+.c.K.e.i.d.=X<X<X<X<X<X:XE.M.m.m.m.m.m.m.m.m.m.m.m.m.m.m.m.m.m.m.",
"m.m.m.m.m.m.m.m.m.m.m.m.m.m.m.m.m.m.m.m.b.+.<.<.<.>.>.-.-.-.-.+.=.w.a.a.s.=X<X<X<X<X<X<X&XS.m.m.m.m.m.m.m.m.m.m.m.m.m.m.m.m.m.m.",
"m.m.m.m.m.m.m.m.m.m.m.m.m.m.m.m.m.m.m.m.m.c.1.<.<.,.>.X.-.-.-.-.;.y.].=X$X>X<X<X<X<X<X>X<XOXA.m.m.m.m.m.m.m.m.m.m.m.m.m.m.m.m.m.",
"m.m.m.m.m.m.m.m.m.m.m.m.m.m.m.m.m.m.m.m.m.M.*.1.<.<.,.:.-.-.-.;.r.].,X<X>X-XR.h.h.h.h.#X6.[.L l.m.m.m.m.m.m.m.m.m.m.m.m.m.m.m.m.",
"m.m.m.m.m.m.m.m.m.m.m.m.m.m.m.m.m.m.m.m.m.m.m.@.@.,.,.X.X.:.9.y.d.>X<X<X>X'.<.-.,.,.3.R.I K.I P v.m.m.m.m.m.m.m.m.n.m.m.m.m.m.m.",
"m.m.m.m.m.m.m.m.m.m.m.m.m.m.m.m.m.m.m.m.m.m.m.m.b.@.+.+.+.4.`.f.d.$X>X>XXX2.-.<.,.,.,.3.U.v L.8 $.n.m.m.m.m.m.m.m.m.m.m.m.m.m.m.",
"m.m.m.m.m.m.m.m.m.m.m.m.m.m.m.m.m.m.m.m.m.m.m.m.m.b.b.M.Z.~.V `.d.f.=X XM  .-.>.>.,.<.O.9 @ : @ , k.m.m.m.m.m.m.m.m.m.m.m.m.m.m.",
"m.m.m.m.m.m.m.m.m.m.m.m.m.m.m.m.m.m.m.m.m.m.m.m.m.m.n.N.~.I U.$Xw.w.{.J L.2.-.-.-.-.,...-   X X X f l.m.m.m.m.m.m.m.m.m.m.m.m.m.",
"m.m.m.m.m.m.m.m.m.m.m.m.m.m.m.m.n.m.m.m.m.m.m.m.m.m.C.Y.K.( K. X8.8.g.E g.3.-.-.O.-.,...-   o o   # z v.m.m.m.m.m.m.m.m.m.m.m.m.",
"m.m.m.m.m.m.m.m.m.m.m.m.m.m.m.m.F.M.m.m.m.m.m.m.m.n.z.I.J L.V P.w.w.u.p.t.| -.-.:.X.X.d +   o o o . @ c n.m.m.m.m.m.m.m.m.m.m.m.",
"m.m.m.m.m.m.m.m.m.m.m.m.m.m.m.F.|.H.m.m.m.m.m.m.m.j.: 6 L.v P.M { u.q.{ ` 9 |  .o...| < X o o X o o X : j.m.m.m.m.m.m.m.m.m.m.m.",
"m.m.m.m.m.m.m.m.m.m.m.m.m.n.V.OX,XOXC.m.m.m.n.n.x.,   @ , : v T.a.q.w = 1 @ + < ; < - o X X X X X o X o 8 l.m.M.m.m.m.m.m.m.m.m.",
"m.m.m.m.m.m.m.m.m.m.m.m.m.m.C.*X,X,Xm.n.m.m.m.M.x.: . .     @ K 0.a O X . . . .     . o @ 5 7 7 7 o o X # S L L m.m.m.m.m.m.m.m.",
"m.m.m.m.m.m.m.m.m.m.m.m.m.N.!.,X<X,XQ.m.m.n.m.n.x : . . . o . & R %   . . . . . X o . o 5 n C C j < o X > h h n #.#.m.b.m.m.m.m.",
"m.m.m.m.m.m.m.m.m.m.m.m.m.C.*X<X<X<X,XH.M.n.n.$.# . @ 2 O . . = R 2 X X o o . . o o X # p | H G n g ; ; h n n h i j #.v.l.m.m.m.",
"m.m.m.m.m.m.m.m.m.m.m.m.m.C.*X<X<X,X,X@XA.n.k.> . . = Q = X . 1 R 2 X o . o . . o X   # F L H F n h i h F H G b i j j j l l.m.m.",
"m.m.m.m.m.m.m.m.n.n.m.n.V.|.,X,X,X<X<X,XN.l.f @ o X = ` &   % R 0.1 X X o . o o . . o g F H G C h h h b F L G C j i n i j S b.m.",
"m.m.m.m.m.m.m.m.n.n.m.C.^.,X,X,X<X<X<X,XQ.l @   o   2 [ Y O % { 0.% X X o X o X o o @ g H H C b h h h j F | Z j i C i n n j x.m.",
"m.m.m.m.m.m.m.m.n.N.n.C.I.,X,X,X,X<X,X<X%XV @   .   % R ' & % { 0.e o . o o o o o o o y A A b b h y h h A D p j i i i i j j x.m.",
"m.m.m.m.m.m.m.m.n.N.n.j.v }.,X,X<X<X<X<X<X.X6   . . . & ! 3 2 { u.~ < X o o X o   o . @ i h i i y ; u h h h j n i C j n i j x.m.",
"m.m.m.m.m.m.m.m.m.m.l.k ~.,X,X<X<X<X<X<X<X.X0   . .   % ] { ] u.y.) * o o o X o o o o # y - + $ # @ + i j i n i h h h h j j x.m.",
"m.m.m.m.m.m.m.m.n.m.l., J |.( %X<X<X<X<X<X,XL.$   o o @ t { i.u.y.) * . o o o o o o o o ; % Y R Y % @ i h h i n h h h Z D C x.m.",
"m.m.m.m.m.m.m.m.m.n.z @ @ U 6.*X<X<X<X<X<X<X,XU $   .   O Y t.i.0.a $   o o o o o X o .   = 0.p.t.s + i h h h h h j Z G | j x.m.",
"m.m.m.m.m.m.m.m.n.P @     4 U.,X}.-X}.-X}.,X}.[.6   . .   & } a.' %   . o o o X . o o o   % R ' ' ] r i h h h h h C G G L j $.n.",
"n.m.m.m.m.m.m.M.k.> X o X o 0 T.V U.B U.V T.B U.0 o o o o = } u.~ + X o o o X X @ @ @ @ @ o + + 2 ` ) m h h h j G H H H A ; > $.",
"m.m.m.m.m.m.m.m.k.:   X o   @ v L.J P.J L.V L.V L.6 o o o = } u.~ %   o X X X @ m C C C y O . o @ e 0.' m h h j G H H F 5 o @ , ",
"m.m.m.m.m.m.m.l.k @ X X . . . # N 4 B 4 N 4 N 4 B $ o o . = } u.~ * X o o o @ i G H H H b 7 o o X + 0.0.r g j b C C 7 7 @ o o   ",
"m.m.m.m.m.m.M.k.:   X X . . . .                   X o o . 1 } u.~ $ X X o o # D H H D A b i # X o t 0.T * 7 q q y 7 X X   o o . ",
"m.m.m.m.m.m.n.j.:   o . . X o o o . o o . o X o o o o .   = } u.~ +   o o . + A H F h h j i # o < ' [ 2   o o X o o o . . o   o ",
"m.m.m.m.m.m.k.,   o o o . @ o o o X o X o o o . o o X o o = } a.~ %   o o . + A G m h h p i - o = ) ) 1   X o . . X o o o o o o ",
"m.m.m.m.m.m.k.:   o o X o X X o o o X o X o o o o o o o X = } } r o o o o o # i C b h h b m W ^ Q _ ( *   o o o o o X o o o o o ",
"m.m.m.m.m.v.z @ . o o o . o o o . o o o . o o o o o . o X = } } =   o o o o o 7 i h h h i p q.p.u.e./ *   o X o o X o . o X o . ",
"m.m.m.m.m.c #   . o X o . o X o o o o o o X   o o o   o   1 [ ' =   o o o o . @ 7 u y y y < R R ^ u.{ 2   o X o o . o o o o X o ",
"m.m.m.m.l.> . o o o o o o o o .   o o . o o o o o o o o   * ( ( *   o X   o o   o o o o o . o O = ] { 1   o o o o o o   o . o o ",
"m.m.m.m.k.:   . o o X . o o o o o o o o . o X o o o o o   * ( ( *     o o X o .   o . o . . o . o e ` 2   X o o o o . o o . . o ",
"m.m.m.x.k @ . o . o o o o . o X o X o o o o o . o         1 / ( *   X X . o o o o o o X o o o o . 2 ^ 1 X X o X X X o o o o o X ",
"m.m.m.l.:     . o o o X   o o o X X X X o o o o o o o     1 } / *   o o o   o o X o . o o o . o   2 ^ 1 X o O e O X o o X . o o ",
"m.m.n.$.# . . . X o . o o o o . X X X X o o o   o o o o   1 } } =   o . o o o o o o o o   o o o   = ` w o X & Q &   o . o o o X ",
"m.n.k., o X o X o . o o o o o X o o o o   o o o o   o o   1 { { =   X o o o o . . o o . o o o o . = { ` & X 3 R & X X o o o o . ",
"m.v.f o o o . o o o . o X . o o o o   o o o o o o o o o   * / [ =   o o . X o o o o X o o o o o . = { { = + R ' & X o o . X o o "
};
